<svg xmlns="http://www.w3.org/2000/svg" viewBox="0 0 1920 1080"><g transform="
          rotate(0 960 540) 
          translate(-0 -0)
          scale(1)
        "><rect width="1920" height="1080" fill="rgb(110, 17, 209)" data-darkreader-inline-fill="" style="--darkreader-inline-fill: #580ea7;"></rect><g transform="translate(0, 0)"><path fill="rgb(134, 13, 221)" fill-opacity="1" d="M0,264.707L29.091,262.556C58.182,260.405,116.364,256.103,174.545,255.436C232.727,254.769,290.909,257.737,349.091,258.071C407.273,258.405,465.455,256.104,523.636,227.387C581.818,198.67,640,143.537,698.182,138.881C756.364,134.225,814.545,180.045,872.727,166.002C930.909,151.959,989.091,78.052,1047.273,73.86C1105.455,69.669,1163.636,135.193,1221.818,151.514C1280,167.835,1338.182,134.953,1396.364,104.517C1454.545,74.081,1512.727,46.091,1570.909,60.539C1629.091,74.987,1687.273,131.872,1745.455,142.129C1803.636,152.386,1861.818,116.015,1890.909,97.83L1920,79.644L1920,1080L1890.909,1080C1861.818,1080,1803.636,1080,1745.455,1080C1687.273,1080,1629.091,1080,1570.909,1080C1512.727,1080,1454.545,1080,1396.364,1080C1338.182,1080,1280,1080,1221.818,1080C1163.636,1080,1105.455,1080,1047.273,1080C989.091,1080,930.909,1080,872.727,1080C814.545,1080,756.364,1080,698.182,1080C640,1080,581.818,1080,523.636,1080C465.455,1080,407.273,1080,349.091,1080C290.909,1080,232.727,1080,174.545,1080C116.364,1080,58.182,1080,29.091,1080L0,1080Z" data-darkreader-inline-fill="" style="--darkreader-inline-fill: #6b0ab1;"></path></g><g transform="translate(0, 270)"><path fill="rgb(157, 9, 232)" fill-opacity="1" d="M0,79.529L29.091,105.937C58.182,132.344,116.364,185.158,174.545,213.523C232.727,241.888,290.909,245.804,349.091,213.506C407.273,181.208,465.455,112.697,523.636,84.467C581.818,56.237,640,68.289,698.182,94.704C756.364,121.12,814.545,161.899,872.727,190.747C930.909,219.596,989.091,236.513,1047.273,225.386C1105.455,214.259,1163.636,175.089,1221.818,135.235C1280,95.38,1338.182,54.842,1396.364,32.523C1454.545,10.205,1512.727,6.106,1570.909,30.809C1629.091,55.513,1687.273,109.018,1745.455,125.837C1803.636,142.655,1861.818,122.785,1890.909,112.85L1920,102.916L1920,810L1890.909,810C1861.818,810,1803.636,810,1745.455,810C1687.273,810,1629.091,810,1570.909,810C1512.727,810,1454.545,810,1396.364,810C1338.182,810,1280,810,1221.818,810C1163.636,810,1105.455,810,1047.273,810C989.091,810,930.909,810,872.727,810C814.545,810,756.364,810,698.182,810C640,810,581.818,810,523.636,810C465.455,810,407.273,810,349.091,810C290.909,810,232.727,810,174.545,810C116.364,810,58.182,810,29.091,810L0,810Z" data-darkreader-inline-fill="" style="--darkreader-inline-fill: #7e07ba;"></path></g><g transform="translate(0, 540)"><path fill="rgb(181, 4, 244)" fill-opacity="1" d="M0,38.612L29.091,43.474C58.182,48.336,116.364,58.059,174.545,64.956C232.727,71.853,290.909,75.924,349.091,99.792C407.273,123.66,465.455,167.326,523.636,197.063C581.818,226.799,640,242.607,698.182,252.089C756.364,261.571,814.545,264.727,872.727,246.468C930.909,228.209,989.091,188.536,1047.273,156.971C1105.455,125.406,1163.636,101.95,1221.818,81.477C1280,61.005,1338.182,43.517,1396.364,69.355C1454.545,95.193,1512.727,164.359,1570.909,204.125C1629.091,243.892,1687.273,254.26,1745.455,259.811C1803.636,265.363,1861.818,266.098,1890.909,266.466L1920,266.834L1920,540L1890.909,540C1861.818,540,1803.636,540,1745.455,540C1687.273,540,1629.091,540,1570.909,540C1512.727,540,1454.545,540,1396.364,540C1338.182,540,1280,540,1221.818,540C1163.636,540,1105.455,540,1047.273,540C989.091,540,930.909,540,872.727,540C814.545,540,756.364,540,698.182,540C640,540,581.818,540,523.636,540C465.455,540,407.273,540,349.091,540C290.909,540,232.727,540,174.545,540C116.364,540,58.182,540,29.091,540L0,540Z" data-darkreader-inline-fill="" style="--darkreader-inline-fill: #9103c3;"></path></g><g transform="translate(0, 810)"><path fill="rgb(204, 0, 255)" fill-opacity="1" d="M0,172.304L29.091,168.383C58.182,164.461,116.364,156.619,174.545,140.594C232.727,124.569,290.909,100.363,349.091,119.482C407.273,138.602,465.455,201.049,523.636,227.091C581.818,253.132,640,242.768,698.182,239.822C756.364,236.876,814.545,241.347,872.727,236.16C930.909,230.973,989.091,216.127,1047.273,179.092C1105.455,142.057,1163.636,82.831,1221.818,89.924C1280,97.016,1338.182,170.425,1396.364,187.104C1454.545,203.782,1512.727,163.73,1570.909,129.672C1629.091,95.615,1687.273,67.551,1745.455,66.973C1803.636,66.395,1861.818,93.301,1890.909,106.754L1920,120.207L1920,270L1890.909,270C1861.818,270,1803.636,270,1745.455,270C1687.273,270,1629.091,270,1570.909,270C1512.727,270,1454.545,270,1396.364,270C1338.182,270,1280,270,1221.818,270C1163.636,270,1105.455,270,1047.273,270C989.091,270,930.909,270,872.727,270C814.545,270,756.364,270,698.182,270C640,270,581.818,270,523.636,270C465.455,270,407.273,270,349.091,270C290.909,270,232.727,270,174.545,270C116.364,270,58.182,270,29.091,270L0,270Z" data-darkreader-inline-fill="" style="--darkreader-inline-fill: #a300cc;"></path></g></g></svg>